<?xml version="1.0" encoding="UTF-8" standalone="no"?>
<!-- Created with Inkscape (http://www.inkscape.org/) -->

<svg
   width="150.00006mm"
   height="150.00064mm"
   viewBox="0 0 150.00006 150.00064"
   version="1.1"
   id="svg5"
   inkscape:version="1.1.1 (c3084ef, 2021-09-22)"
   sodipodi:docname="mockup-background.svg"
   xmlns:inkscape="http://www.inkscape.org/namespaces/inkscape"
   xmlns:sodipodi="http://sodipodi.sourceforge.net/DTD/sodipodi-0.dtd"
   xmlns="http://www.w3.org/2000/svg"
   xmlns:svg="http://www.w3.org/2000/svg">
  <sodipodi:namedview
     id="namedview7"
     pagecolor="#505050"
     bordercolor="#eeeeee"
     borderopacity="1"
     inkscape:pageshadow="0"
     inkscape:pageopacity="0"
     inkscape:pagecheckerboard="0"
     inkscape:document-units="mm"
     showgrid="false"
     inkscape:zoom="0.4204826"
     inkscape:cx="250.90218"
     inkscape:cy="418.56666"
     inkscape:window-width="1280"
     inkscape:window-height="800"
     inkscape:window-x="0"
     inkscape:window-y="0"
     inkscape:window-maximized="0"
     inkscape:current-layer="layer1"
     fit-margin-top="0"
     fit-margin-left="0"
     fit-margin-right="0"
     fit-margin-bottom="0" />
  <defs
     id="defs2" />
  <g
     inkscape:label="Layer 1"
     inkscape:groupmode="layer"
     id="layer1"
     transform="translate(-38.248311,-37.680523)">
    <path
       style="fill:#ffff00;stroke:#000000;stroke-width:0.24239px;stroke-linecap:butt;stroke-linejoin:miter;stroke-opacity:1"
       d="m 107.84082,41.886673 c -20.366565,-0.570942 -46.438423,-9.813012 -61.106445,1.549863 -9.125976,7.069619 -1.118695,20.36431 -2.572903,30.480649 -1.370502,9.534025 -5.667737,18.817301 -5.789031,28.414165 -0.138506,10.95863 4.678569,21.6243 5.789032,32.54713 1.658046,16.30902 -13.374891,37.7171 1.286451,49.07901 10.493245,8.13181 29.165013,-0.88 43.739353,-0.51662 11.176803,0.27867 22.266293,2.1693 33.447743,2.06649 19.39174,-0.17833 45.11103,7.06622 57.89032,-4.6496 8.76437,-8.03501 -2.40945,-21.38627 -1.28647,-32.03051 0.90537,-8.58131 5.64318,-16.72571 6.43227,-25.31443 1.16932,-12.72732 -2.04589,-25.475068 -2.57291,-38.229971 -0.57606,-13.942159 12.03027,-32.307659 -0.64322,-41.846314 -8.93003,-6.721166 -24.42929,1.789497 -36.66386,1.549864 -12.71158,-0.248977 -25.24272,-2.743491 -37.95033,-3.099726 z"
       id="path857"
       sodipodi:nodetypes="aaaaaaaaaaaaaaa" />
  </g>
</svg>
