<?xml version="1.0" standalone="no"?>
<!DOCTYPE svg PUBLIC "-//W3C//DTD SVG 20010904//EN"
 "http://www.w3.org/TR/2001/REC-SVG-20010904/DTD/svg10.dtd">
<svg version="1.0" xmlns="http://www.w3.org/2000/svg"
 width="999.000000pt" height="999.000000pt" viewBox="0 0 999.000000 999.000000"
 preserveAspectRatio="xMidYMid meet">
<metadata>
Created by potrace 1.14, written by Peter Selinger 2001-2017
</metadata>
<g transform="translate(0.000000,999.000000) scale(0.100000,-0.100000)"
fill="#000000" stroke="none">
<path d="M7134 8597 c-6 -12 -52 -93 -102 -180 -51 -88 -92 -163 -92 -168 0
-5 -4 -9 -9 -9 -5 0 -12 -9 -16 -19 -5 -17 -177 -319 -205 -361 -6 -8 -13 -22
-17 -30 -4 -8 -24 -43 -45 -78 -21 -34 -38 -64 -38 -66 0 -9 -75 -131 -82
-134 -5 -2 -8 -11 -8 -21 0 -9 -8 -26 -17 -37 -10 -11 -31 -46 -48 -77 -16
-31 -33 -57 -37 -57 -4 0 -8 -5 -8 -12 0 -6 -21 -48 -47 -92 -27 -45 -55 -93
-63 -107 -170 -298 -225 -395 -230 -399 -6 -6 -49 -84 -65 -117 -5 -13 -13
-23 -17 -23 -5 0 -8 -4 -8 -10 0 -5 -20 -44 -45 -86 -25 -41 -45 -80 -45 -85
0 -5 -4 -9 -10 -9 -5 0 -10 -4 -10 -9 0 -8 -51 -100 -106 -191 -8 -14 -33 -56
-55 -95 -22 -38 -44 -77 -49 -85 -5 -8 -33 -58 -63 -110 -30 -52 -60 -106 -68
-120 -8 -14 -18 -28 -22 -31 -5 -3 -8 -9 -8 -13 1 -3 -5 -16 -13 -29 -47 -76
-166 -288 -166 -297 0 -5 -4 -10 -10 -10 -5 0 -10 -5 -10 -10 0 -6 -19 -43
-43 -83 -72 -120 -101 -172 -98 -176 1 -2 -1 -7 -7 -10 -5 -3 -26 -37 -48 -75
-21 -37 -52 -92 -69 -120 -16 -29 -52 -90 -78 -137 -26 -46 -57 -100 -69 -119
-11 -19 -30 -53 -41 -75 -12 -22 -26 -44 -30 -50 -15 -19 -237 -408 -237 -416
0 -4 -3 -9 -7 -11 -5 -1 -16 -19 -27 -38 -49 -91 -80 -145 -85 -150 -3 -3 -15
-23 -26 -45 -11 -22 -26 -46 -32 -53 -7 -7 -13 -17 -13 -22 0 -5 -13 -29 -30
-53 -16 -25 -30 -51 -30 -58 0 -12 451 -14 2807 -12 1545 0 2819 2 2832 2 17
1 21 4 13 14 -5 6 -19 29 -31 50 -37 66 -56 99 -151 262 -51 88 -106 185 -123
215 -16 30 -35 62 -42 70 -6 8 -25 41 -41 72 -16 32 -32 58 -36 58 -5 0 -8 5
-8 11 0 6 -23 49 -52 97 -28 48 -64 112 -81 142 -16 30 -33 60 -37 65 -4 6
-17 26 -28 45 -10 19 -78 138 -151 263 -72 126 -131 233 -131 238 0 5 -3 9 -7
9 -5 0 -13 10 -19 23 -21 42 -62 114 -88 155 -14 23 -26 46 -26 52 0 5 -4 10
-8 10 -4 0 -13 12 -20 28 -6 15 -20 41 -31 58 -10 17 -30 51 -43 75 -13 24
-36 63 -51 86 -15 24 -27 45 -27 48 0 3 -11 22 -23 43 -13 20 -104 177 -202
347 -166 289 -213 369 -271 470 -13 22 -29 51 -36 65 -6 14 -17 32 -24 40 -6
8 -27 42 -45 75 -19 33 -81 143 -139 243 -58 100 -119 207 -135 237 -17 30
-36 60 -43 67 -7 7 -12 15 -12 20 0 4 -19 40 -43 80 -24 40 -46 80 -50 88 -4
8 -13 24 -20 35 -42 69 -87 147 -87 151 0 2 -11 23 -26 45 -14 22 -34 57 -46
77 -31 56 -209 363 -226 392 -9 14 -14 25 -12 25 3 0 -9 20 -25 45 -39 60 -49
76 -81 135 -44 82 -52 89 -70 52z"/>
<path d="M2820 6250 c0 -11 -4 -20 -9 -20 -5 0 -14 -12 -20 -27 -6 -16 -20
-41 -31 -58 -11 -16 -23 -37 -27 -45 -6 -13 -85 -152 -113 -200 -92 -155 -116
-198 -123 -217 -5 -13 -13 -23 -18 -23 -5 0 -9 -4 -9 -9 0 -4 -22 -47 -50 -95
-27 -48 -50 -91 -50 -96 0 -4 -3 -10 -8 -12 -4 -1 -58 -93 -121 -203 -63 -110
-117 -202 -120 -205 -3 -3 -16 -25 -29 -50 -41 -79 -61 -115 -69 -125 -5 -5
-26 -41 -48 -80 -21 -38 -43 -73 -49 -77 -6 -4 -7 -8 -2 -8 5 0 4 -6 -2 -12
-6 -7 -27 -42 -47 -78 -21 -36 -47 -81 -58 -100 -11 -19 -31 -55 -45 -80 -14
-25 -33 -57 -43 -72 -11 -14 -19 -28 -19 -31 0 -10 -74 -132 -85 -139 -5 -4
-6 -8 -1 -8 5 0 4 -6 -2 -12 -5 -7 -19 -29 -30 -48 -11 -19 -68 -118 -127
-220 -125 -215 -131 -226 -175 -305 -18 -33 -44 -77 -57 -98 -13 -21 -33 -55
-45 -75 -11 -20 -43 -77 -71 -125 -29 -49 -61 -105 -73 -125 -11 -20 -31 -55
-44 -77 -12 -22 -43 -76 -68 -120 -25 -44 -54 -92 -64 -107 -11 -16 -16 -28
-11 -28 4 0 3 -4 -3 -8 -5 -4 -55 -86 -111 -182 -55 -96 -123 -215 -152 -264
-28 -49 -51 -90 -51 -92 0 -2 -16 -28 -35 -58 -19 -30 -35 -57 -35 -59 0 -2
-22 -42 -50 -88 -27 -46 -50 -90 -50 -96 0 -7 -4 -13 -8 -13 -5 0 -18 -19 -31
-43 -12 -23 -26 -49 -31 -57 -8 -12 -140 -241 -191 -330 -8 -14 -20 -33 -28
-42 -8 -10 -10 -18 -6 -18 4 0 1 -8 -7 -17 -9 -10 -24 -34 -33 -53 -10 -19
-23 -38 -29 -42 -6 -4 -8 -9 -5 -12 3 -4 1280 -5 2837 -4 l2831 3 -29 46 c-16
26 -41 70 -57 98 -15 28 -38 68 -50 89 -13 20 -26 44 -30 52 -4 8 -32 58 -63
110 -31 52 -68 115 -82 140 -21 38 -69 120 -229 398 -11 17 -28 48 -39 67 -11
19 -30 52 -42 73 -12 20 -28 50 -37 65 -9 16 -21 36 -26 45 -22 37 -132 226
-160 276 -97 173 -260 453 -272 467 -7 9 -10 19 -6 22 3 4 1 7 -5 7 -7 0 -12
4 -12 9 0 12 -83 155 -92 159 -5 2 -8 8 -8 13 0 6 -22 48 -50 95 -27 47 -50
87 -50 91 0 4 -6 14 -14 22 -7 9 -27 41 -43 71 -17 30 -60 106 -97 169 -36 62
-66 116 -66 118 0 2 -13 23 -28 46 -16 23 -31 50 -35 59 -3 10 -22 43 -42 73
-19 31 -35 57 -35 59 0 2 -35 64 -78 138 -43 74 -82 141 -85 149 -4 8 -16 28
-26 44 -11 17 -31 52 -46 78 -14 26 -52 93 -85 148 -33 56 -60 105 -60 110 0
5 -4 9 -8 9 -4 0 -13 12 -19 28 -7 15 -25 50 -41 77 -52 88 -174 298 -200 345
-14 25 -32 57 -41 72 -9 15 -44 75 -78 135 -143 250 -253 439 -260 448 -9 12
-57 96 -80 142 -20 39 -43 51 -43 23z"/>
</g>
</svg>
